<svg width="24" height="24" viewBox="0 0 24 24" fill="none" xmlns="http://www.w3.org/2000/svg">
  <!-- Shield Background -->
  <path d="M12 2C8 2 5 5 5 9C5 13 8 16 12 16C16 16 19 13 19 9C19 5 16 2 12 2Z" fill="#1E3A8A"/>
  
  <!-- Dog Body -->
  <ellipse cx="12" cy="14" rx="4" ry="3" fill="white" stroke="#374151" stroke-width="0.5"/>
  
  <!-- Dog Head -->
  <ellipse cx="12" cy="10" rx="3" ry="2.5" fill="white" stroke="#374151" stroke-width="0.5"/>
  
  <!-- Dog Ears -->
  <path d="M10 8C10 8 9 7.5 10 7C11 6.5 11.5 7 11.5 7" fill="white" stroke="#374151" stroke-width="0.5"/>
  <path d="M14 8C14 8 15 7.5 14 7C13 6.5 12.5 7 12.5 7" fill="white" stroke="#374151" stroke-width="0.5"/>
  
  <!-- Dog Nose -->
  <ellipse cx="11.5" cy="10" rx="0.3" ry="0.2" fill="black"/>
  
  <!-- Sunglasses -->
  <rect x="9" y="9" width="2.5" height="1.5" rx="0.8" fill="#3B82F6" stroke="#1E40AF" stroke-width="0.2"/>
  <rect x="12.5" y="9" width="2.5" height="1.5" rx="0.8" fill="#3B82F6" stroke="#1E40AF" stroke-width="0.2"/>
  <rect x="11.5" y="9.5" width="1" height="0.8" fill="#1E40AF"/>
  
  <!-- Cape -->
  <path d="M8 12C8 12 7.5 13 8 14C8.5 15 9.5 14.5 10 13.5" fill="#DC2626" stroke="#991B1B" stroke-width="0.2"/>
  <path d="M16 12C16 12 16.5 13 16 14C15.5 15 14.5 14.5 14 13.5" fill="#DC2626" stroke="#991B1B" stroke-width="0.2"/>
  
  <!-- Collar -->
  <ellipse cx="12" cy="13" rx="4.5" ry="1" fill="#1E293B" stroke="#0F172A" stroke-width="0.2"/>
  
  <!-- Pendant -->
  <path d="M12 12.5C12 12.5 11.5 12 12 11.5C12.5 12 12.5 12.5 12 12.5Z" fill="#1E3A8A" stroke="#1E40AF" stroke-width="0.2"/>
  <text x="12" y="12.2" text-anchor="middle" fill="#3B82F6" font-family="Arial, sans-serif" font-size="1.5" font-weight="bold">K</text>
</svg>
