<svg width="200" height="200" viewBox="0 0 200 200" fill="none" xmlns="http://www.w3.org/2000/svg">
  <!-- Shield Background -->
  <path d="M100 20C60 20 30 50 30 90C30 130 60 160 100 160C140 160 170 130 170 90C170 50 140 20 100 20Z" fill="#0F172A"/>
  
  <!-- Dog Body -->
  <ellipse cx="100" cy="120" rx="35" ry="25" fill="white" stroke="#6B7280" stroke-width="2"/>
  
  <!-- Dog Head -->
  <ellipse cx="100" cy="85" rx="25" ry="20" fill="white" stroke="#6B7280" stroke-width="2"/>
  
  <!-- Dog Ears -->
  <path d="M85 70C85 70 80 65 85 60C90 55 95 60 95 60" fill="white" stroke="#6B7280" stroke-width="2"/>
  <path d="M115 70C115 70 120 65 115 60C110 55 105 60 105 60" fill="white" stroke="#6B7280" stroke-width="2"/>
  
  <!-- Dog Nose -->
  <ellipse cx="95" cy="85" rx="2" ry="1.5" fill="black"/>
  
  <!-- Dog Mouth -->
  <path d="M90 90C90 90 95 92 100 92C105 92 110 90 110 90" stroke="#6B7280" stroke-width="1.5" fill="none"/>
  
  <!-- Sunglasses -->
  <rect x="75" y="75" width="20" height="12" rx="6" fill="#60A5FA" stroke="#3B82F6" stroke-width="1"/>
  <rect x="105" y="75" width="20" height="12" rx="6" fill="#60A5FA" stroke="#3B82F6" stroke-width="1"/>
  <rect x="95" y="78" width="10" height="6" fill="#3B82F6"/>
  
  <!-- Cape -->
  <path d="M65 100C65 100 60 110 65 120C70 130 80 125 85 115" fill="#EF4444" stroke="#DC2626" stroke-width="1"/>
  <path d="M135 100C135 100 140 110 135 120C130 130 120 125 115 115" fill="#EF4444" stroke="#DC2626" stroke-width="1"/>
  
  <!-- Collar -->
  <ellipse cx="100" cy="110" rx="40" ry="8" fill="#374151" stroke="#1F2937" stroke-width="1"/>
  
  <!-- Pendant -->
  <path d="M100 105C100 105 95 100 100 95C105 100 105 105 100 105Z" fill="#0F172A" stroke="#1E3A8A" stroke-width="1"/>
  <text x="100" y="102" text-anchor="middle" fill="#60A5FA" font-family="Arial, sans-serif" font-size="8" font-weight="bold">K</text>
</svg>
